<svg xmlns="http://www.w3.org/2000/svg" viewBox="0 0 64 64" role="img" aria-labelledby="title">
  <title id="title">PropSlip three-blade propeller favicon option A</title>
  <rect width="64" height="64" rx="10" fill="#0b1720"/>
  <path d="M41 0h9L30 64h-9z" fill="#e3342f"/>
  <path d="M51 0h5L36 64h-5z" fill="#f2b705"/>
  <path d="M10 49h28v4H10z" fill="#00a5b5"/>
  <g fill="#f5fbfc">
    <circle cx="32" cy="32" r="5.2"/>
    <path d="M32 8c7 0 12 3 12 7.7 0 4.3-4.2 7.4-10 7.8L32 31l-2-7.5c-5.8-.4-10-3.5-10-7.8C20 11 25 8 32 8z"/>
    <path d="M52.8 44c-3.5 6-8.6 8.5-12.7 6.1-3.7-2.1-4.3-7.3-1.8-12.5L32.7 32l7.5 2c3.3-4.8 8.5-6.5 12.2-4.3 4.1 2.4 3.9 8.2.4 14.3z"/>
    <path d="M11.2 44c-3.5-6-3.7-11.9.4-14.3 3.7-2.1 8.9-.5 12.2 4.3l7.5-2-5.6 5.6c2.5 5.2 1.9 10.4-1.8 12.5-4.1 2.4-9.2-.1-12.7-6.1z"/>
  </g>
  <circle cx="32" cy="32" r="2.1" fill="#0b1720"/>
</svg>
