<svg xmlns="http://www.w3.org/2000/svg" viewBox="0 0 64 64" role="img" aria-labelledby="title">
  <title id="title">PropSlip broad-blade propeller favicon option G</title>
  <rect width="64" height="64" rx="10" fill="#0b1720"/>
  <path d="M41 0h9L30 64h-9z" fill="#e3342f"/>
  <path d="M51 0h5L36 64h-5z" fill="#f2b705"/>
  <path d="M10 49h28v4H10z" fill="#00a5b5"/>
  <circle cx="32" cy="32" r="20.5" fill="#0b1720" opacity="0.88"/>
  <g fill="#f5fbfc" transform="rotate(-8 32 32)">
    <path d="M31 29.2c-3.3-3.5-8.2-8.2-9.8-11.6-1.5-3.1 0-6.1 4-8.3 5.1-2.8 12.3-2.3 14.8 1.4 2.4 3.5.1 8.4-5.4 12.1-1.7 1.2-2.8 3.5-3.6 6.4z"/>
    <path d="M34.8 31.5c4.7-1 11.5-1.6 15.2-.8 3.3.7 5.1 3.5 4.9 8-.3 5.8-4.4 11.7-8.9 12-4.2.3-7.2-4.3-8.1-10.9-.3-2.1-1.4-4.3-3.1-8.3z"/>
    <path d="M30.2 35.1c-1.4 4.6-3.3 11.2-5.5 14.2-2 2.7-5.3 2.9-9.1.5-4.9-3.1-8-9.6-5.9-13.7 1.8-3.7 7.2-4.3 13.4-1.6 1.9.8 4.4.9 7.1.6z"/>
  </g>
  <circle cx="32" cy="32" r="7.4" fill="#f5fbfc"/>
  <circle cx="32" cy="32" r="3.1" fill="#0b1720"/>
</svg>
